<?xml version="1.0" encoding="UTF-8" standalone="no"?>
<!DOCTYPE svg PUBLIC "-//W3C//DTD SVG 1.1//EN" "http://www.w3.org/Graphics/SVG/1.1/DTD/svg11.dtd">
<svg width="100%" height="100%" viewBox="0 0 1000 875" version="1.1" xmlns="http://www.w3.org/2000/svg" xmlns:xlink="http://www.w3.org/1999/xlink" xml:space="preserve" xmlns:serif="http://www.serif.com/" style="fill-rule:evenodd;clip-rule:evenodd;stroke-linejoin:round;stroke-miterlimit:2;">
    <g transform="matrix(1,0,0,1,-0.187873,-0.0554292)">
        <g transform="matrix(7.26103,0,0,7.26103,325.368,358.693)">
            <path d="M0,19.982C0,19.525 0.053,19.109 -0.009,18.71C-0.282,16.94 -0.583,15.173 -0.889,13.409C-0.914,13.264 -1.02,13.049 -1.129,13.019C-1.698,12.863 -2.28,12.659 -2.857,12.66C-3.429,12.66 -4.066,13.304 -4.052,13.744C-3.939,17.17 -3.142,18.882 0,19.982M18.837,28.368C19.386,27.744 19.889,27.148 20.419,26.578C20.837,26.127 21.306,25.721 21.723,25.269C22.522,24.404 22.618,23.567 22.073,22.529C21.379,21.208 19.651,20.408 18.184,20.724C17.448,20.882 16.941,21.329 16.781,22.043C16.663,22.569 16.631,23.143 16.701,23.677C16.933,25.454 17.818,26.948 18.837,28.368M24.027,31.667C25.267,32.863 26.434,33.986 27.597,35.114C27.912,35.42 28.223,35.396 28.573,35.169C29.613,34.492 30.663,33.831 31.704,33.155C32.122,32.882 32.094,32.553 31.812,32.18C31.557,31.842 31.242,31.508 31.115,31.12C30.678,29.781 29.585,29.178 28.458,28.585C28.041,28.366 27.688,28.411 27.344,28.718C26.291,29.66 25.234,30.595 24.027,31.667M10.091,24.511C10.169,24.398 10.205,24.368 10.214,24.331C10.878,21.556 11.543,18.782 12.194,16.003C12.23,15.846 12.208,15.596 12.106,15.5C11.467,14.887 10.841,14.244 10.125,13.732C9.458,13.256 8.834,13.313 8.269,13.907C7.769,14.433 7.288,15.055 7.038,15.724C6.305,17.682 6.268,19.738 6.533,21.79C6.583,22.176 6.844,22.66 7.16,22.866C8.089,23.473 9.095,23.964 10.091,24.511M0.021,-13.833C1.209,-13.492 2.199,-13.25 3.159,-12.922C5.186,-12.23 7.239,-12.261 9.285,-12.704C11.775,-13.243 14.25,-13.847 16.72,-14.472C20.34,-15.389 23.968,-15.629 27.649,-14.862C30.552,-14.257 33.22,-13.098 35.725,-11.549C37.187,-10.645 38.778,-10.238 40.463,-10.178C41.365,-10.146 42.276,-10.332 43.173,-10.276C46.031,-10.096 48.861,-10.226 51.675,-10.772C51.918,-10.82 52.207,-10.633 52.474,-10.555C52.31,-10.357 52.185,-10.085 51.975,-9.974C50.678,-9.287 49.452,-8.491 48.601,-7.283C46.986,-4.989 46.752,-3.588 47.974,-1.753C48.286,-1.286 48.612,-0.805 49.021,-0.427C50.821,1.236 52.12,3.264 53.393,5.329C54.209,6.652 55.094,7.94 56.047,9.168C56.805,10.143 57.277,10.185 58.328,9.495C59.155,8.951 59.915,8.301 60.688,7.677C66.607,2.903 72.499,-1.906 78.449,-6.642C81.201,-8.832 84.072,-10.872 86.863,-13.016C87.125,-13.217 87.355,-13.687 87.323,-14.004C87.098,-16.19 87.012,-18.42 86.489,-20.539C84.158,-29.983 78.526,-36.793 69.755,-41.011C69.266,-41.247 68.966,-41.208 68.569,-40.82C67.319,-39.6 66.047,-38.4 64.733,-37.25C60.82,-33.83 56.715,-30.668 52.053,-28.31C49.857,-27.199 47.584,-26.333 45.058,-26.4C43.365,-26.445 41.669,-26.427 39.979,-26.511C37.835,-26.619 35.694,-26.791 33.553,-26.955C31.813,-27.087 30.076,-27.366 28.337,-27.372C23.712,-27.391 19.377,-26.152 15.254,-24.1C11.072,-22.02 7.304,-19.302 3.569,-16.533C2.431,-15.689 1.313,-14.819 0.021,-13.833M-20.619,-41.437C-21.465,-41.044 -22.237,-40.733 -22.963,-40.338C-23.93,-39.813 -24.903,-39.283 -25.803,-38.653C-33.868,-33.002 -38.321,-25.271 -39.13,-15.444C-39.181,-14.822 -38.988,-14.397 -38.581,-13.944C-35.745,-10.784 -32.867,-7.657 -30.134,-4.408C-24.582,2.193 -19.951,9.381 -16.876,17.48C-14.988,22.454 -11.723,26.324 -7.567,29.482C-0.63,34.753 7.143,37.985 15.886,38.629C17.572,38.753 19.281,38.551 21.122,38.496C20.952,38.149 20.898,38.03 20.837,37.915C19.583,35.586 17.474,34.306 15.176,33.22C8.72,30.17 2.279,27.086 -4.168,24.015C-5.367,23.445 -6.302,22.575 -7.007,21.461C-8.525,19.062 -9.138,16.456 -8.81,13.622C-8.471,10.697 -6.329,8.668 -3.387,8.717C-1.921,8.742 -0.462,9.063 1.005,9.2C1.508,9.246 2.087,9.274 2.525,9.077C6.487,7.289 10.385,7.386 14.108,9.605C18.502,12.224 22.361,15.586 25.752,19.36C28.757,22.707 31.228,26.529 34.042,30.054C35.361,31.706 35.598,33.449 35.248,35.416C35.074,36.391 34.93,37.383 34.907,38.371C34.872,39.864 35.511,40.701 36.984,40.997C37.936,41.188 38.935,41.138 39.982,41.2C39.2,27.259 33.137,16.879 20.363,10.652C23.485,9.499 26.201,9.955 28.7,11.633C34.707,15.666 39.195,20.951 41.78,27.77C42.208,28.899 42.653,30.023 43.121,31.136C43.456,31.932 43.842,32.707 44.205,33.491C44.29,33.471 44.374,33.451 44.458,33.43C44.566,32.209 44.724,30.99 44.773,29.766C44.968,25.025 43.642,20.738 40.44,17.226C37.528,14.031 34.37,11.061 31.33,7.982C30.03,6.666 28.755,5.325 27.469,3.995C32.744,5.167 37.351,7.506 41.125,11.348C44.874,15.165 47.239,19.811 49.045,24.794C49.127,24.658 49.149,24.553 49.147,24.45C49.029,19.692 47.737,15.294 45.118,11.302C42.607,7.477 39.238,4.553 35.427,2.096C34.717,1.638 33.994,1.201 33.089,0.638C35.348,0.525 37.313,0.786 39.208,1.533C42.033,2.646 44.244,4.586 46.239,6.8C47.387,8.075 48.487,9.39 49.64,10.722C49.98,10.478 50.275,10.266 50.625,10.014C49.749,8.871 48.913,7.791 48.088,6.703C45.406,3.163 42.648,-0.305 39.212,-3.171C36.384,-5.531 33.342,-7.52 29.836,-8.722C24.86,-10.429 19.886,-10.232 14.977,-8.509C11.597,-7.324 8.167,-6.784 4.603,-7.14C2.071,-7.393 -0.388,-7.912 -2.61,-9.229C-4.921,-10.599 -5.987,-12.657 -5.373,-15.108C-5.061,-16.352 -4.358,-17.515 -3.726,-18.656C-3.333,-19.366 -2.741,-19.966 -2.229,-20.628C-8.817,-27.163 -16.074,-33.034 -20.619,-41.437M24.005,-31.951C26.17,-34.116 28.258,-36.208 30.352,-38.294C32.685,-40.619 35.234,-42.667 38.092,-44.318C43.527,-47.456 49.378,-49.081 55.657,-49.266C62.479,-49.465 68.911,-48.042 74.811,-44.604C84.478,-38.972 90.446,-30.618 92.308,-19.581C93.977,-9.687 92.046,-0.435 86.285,7.872C85.005,9.716 83.514,11.449 81.927,13.041C62.828,32.193 43.693,51.309 24.567,70.435C24.397,70.605 24.219,70.767 23.871,71.099C23.659,70.802 23.492,70.486 23.25,70.244C4.318,51.301 -14.602,32.349 -33.563,13.438C-39.511,7.506 -43.264,0.477 -44.419,-7.841C-46.872,-25.501 -36.815,-42.702 -18.977,-47.819C-7.481,-51.117 3.33,-49.22 13.093,-42.216C15.197,-40.706 17.029,-38.806 18.923,-37.019C20.642,-35.397 22.274,-33.684 24.005,-31.951" style="fill:rgb(47,47,47);fill-rule:nonzero;"/>
        </g>
    </g>
</svg>
